<svg width="24" height="24" viewBox="0 0 24 24" fill="none" xmlns="http://www.w3.org/2000/svg">
<path fill-rule="evenodd" clip-rule="evenodd" d="M15.3996 2.00454C15.4589 2.00754 15.5214 2.01272 15.5849 2.02079L15.7789 2.05547L15.9307 2.09774C16.03 2.13007 16.1269 2.17059 16.22 2.21804L16.3566 2.29498L16.5181 2.40661C16.6706 2.52472 16.7948 2.65414 16.8822 2.74148L21.2583 7.11873L21.4729 7.33873C21.5129 7.38292 21.5538 7.43089 21.5932 7.48178L21.7059 7.64326L21.7818 7.78089C21.8292 7.87402 21.8698 7.97087 21.9021 8.07025L21.9443 8.22089L21.9801 8.41489C22.0044 8.60613 21.9996 8.78564 21.9996 8.90907V15.0918C21.9996 15.2152 22.0043 15.3941 21.9801 15.5849L21.9443 15.7789C21.9076 15.9319 21.8531 16.0801 21.7818 16.22L21.7059 16.3566C21.6361 16.4705 21.5527 16.5728 21.4729 16.6611L21.2583 16.8822L16.8822 21.2583C16.7948 21.3457 16.6707 21.4751 16.5181 21.5932L16.3566 21.7059C16.2227 21.7879 16.0796 21.8536 15.9307 21.9021L15.7789 21.9443C15.5195 22.0066 15.2565 21.9996 15.0918 21.9996H8.9091C8.78565 21.9996 8.60617 22.0044 8.41491 21.9801L8.22092 21.9443C8.06827 21.9077 7.92051 21.8529 7.78092 21.7818L7.64328 21.7059C7.52937 21.6361 7.42706 21.5527 7.33875 21.4729L7.11875 21.2583L2.74152 16.8822C2.65417 16.7948 2.52475 16.6706 2.40664 16.518L2.29502 16.3566C2.21296 16.2227 2.14626 16.0796 2.09777 15.9307L2.05551 15.7789C2.02438 15.6492 2.01059 15.5183 2.00457 15.3996L2.00024 15.0918V8.90907C2.00024 8.7445 1.99321 8.48056 2.05551 8.22089L2.09777 8.07025C2.14628 7.92094 2.21281 7.77743 2.29502 7.64326L2.40664 7.48178C2.5246 7.32944 2.65416 7.20606 2.74152 7.11873L7.11875 2.74148L7.33875 2.5269C7.42701 2.44714 7.52944 2.36478 7.64328 2.29498L7.78092 2.21804C7.92055 2.14694 8.06821 2.09216 8.22092 2.05547L8.41491 2.02079C8.60623 1.99649 8.78563 2.0002 8.9091 2.0002H15.0918L15.3996 2.00454ZM11.9999 14.447C11.387 14.447 10.8902 14.9439 10.8902 15.5568C10.8907 16.1693 11.3873 16.6665 11.9999 16.6665H12.0086L12.1224 16.66C12.6816 16.6031 13.1179 16.1309 13.1184 15.5568C13.1184 14.9822 12.6819 14.5094 12.1224 14.4524L12.0086 14.447H11.9999ZM11.9999 7.33439C11.387 7.33439 10.8902 7.83125 10.8902 8.44415V11.9999C10.8904 12.6126 11.3872 13.1097 11.9999 13.1097C12.6127 13.1096 13.1095 12.6126 13.1097 11.9999V8.44415C13.1097 7.83126 12.6128 7.33442 11.9999 7.33439Z" fill="currentColor" stroke="none" />
</svg>
