<svg width="24" height="24" viewBox="0 0 24 24" fill="none" xmlns="http://www.w3.org/2000/svg">
<path d="M9.11404 3.06235C10.7768 1.64553 13.2228 1.64551 14.8855 3.06235C15.2777 3.39653 15.7655 3.59848 16.2791 3.6395C18.4567 3.81338 20.1862 5.54297 20.3601 7.72055C20.4011 8.23418 20.6031 8.72191 20.9373 9.11411C22.3542 10.7768 22.3542 13.2228 20.9373 14.8856C20.6031 15.2778 20.4011 15.7655 20.3601 16.2791C20.1863 18.4568 18.4567 20.1863 16.2791 20.3602C15.7655 20.4012 15.2777 20.6032 14.8855 20.9373C13.2228 22.3543 10.7768 22.3543 9.11404 20.9373C8.72189 20.6032 8.23407 20.4012 7.72049 20.3602C5.54282 20.1863 3.81322 18.4568 3.63943 16.2791C3.59843 15.7655 3.39649 15.2778 3.06229 14.8856C1.64534 13.2228 1.6453 10.7769 3.06229 9.11411C3.39645 8.72191 3.59845 8.23416 3.63943 7.72055C3.81334 5.54297 5.5429 3.81336 7.72049 3.6395C8.23409 3.59846 8.72188 3.39653 9.11404 3.06235ZM15.8562 9.04282C15.4658 8.65238 14.8327 8.65253 14.4422 9.04282L12.4168 11.0682L11.0984 12.3856L10.0056 11.2928C9.61521 10.9025 8.98209 10.9026 8.59158 11.2928C8.20109 11.6833 8.20119 12.3163 8.59158 12.7069L10.3914 14.5077C10.5788 14.695 10.8334 14.8005 11.0984 14.8006C11.3634 14.8005 11.618 14.6949 11.8055 14.5077L15.8562 10.4569C16.2465 10.0664 16.2465 9.43328 15.8562 9.04282Z" fill="currentColor" stroke="none"/>
</svg>
