<svg width="24" height="24" viewBox="0 0 24 24" fill="none" xmlns="http://www.w3.org/2000/svg">
<path d="M7.21212 19.8512C7.48693 19.7763 7.62433 19.7388 7.75246 19.6813C7.86623 19.6302 7.97438 19.5674 8.07517 19.494C8.18869 19.4113 8.2894 19.3106 8.49081 19.1092L17.7909 9.80912C17.9691 9.63091 18.0582 9.54181 18.0916 9.43906C18.1209 9.34868 18.1209 9.25132 18.0916 9.16094C18.0582 9.05819 17.9691 8.96909 17.7909 8.79088L15.2091 6.20912C15.0309 6.03091 14.9418 5.94181 14.8391 5.90842C14.7487 5.87905 14.6513 5.87905 14.5609 5.90842C14.4582 5.94181 14.3691 6.03091 14.1909 6.20912L4.89081 15.5092C4.6894 15.7106 4.58869 15.8113 4.50598 15.9248C4.43255 16.0256 4.36979 16.1338 4.31871 16.2475C4.26118 16.3757 4.22371 16.5131 4.14876 16.7879L3 21L7.21212 19.8512Z" fill="currentColor" stroke="none"/>
<path d="M17.4 3L21 6.6M3 21L4.14876 16.7879C4.22371 16.5131 4.26118 16.3757 4.31871 16.2475C4.36979 16.1338 4.43255 16.0256 4.50598 15.9248C4.58869 15.8113 4.6894 15.7106 4.89081 15.5092L14.1909 6.20912C14.3691 6.03091 14.4582 5.94181 14.5609 5.90842C14.6513 5.87905 14.7487 5.87905 14.8391 5.90842C14.9418 5.94181 15.0309 6.03091 15.2091 6.20912L17.7909 8.79088C17.9691 8.96909 18.0582 9.05819 18.0916 9.16094C18.1209 9.25132 18.1209 9.34868 18.0916 9.43906C18.0582 9.54181 17.9691 9.63091 17.7909 9.80912L8.49081 19.1092C8.2894 19.3106 8.18869 19.4113 8.07517 19.494C7.97438 19.5675 7.86623 19.6302 7.75246 19.6813C7.62433 19.7388 7.48693 19.7763 7.21212 19.8512L3 21Z" fill="none" stroke="currentColor" stroke-width="2" stroke-linecap="round" stroke-linejoin="round"/>
<path d="M21 21H13" fill="none" stroke="currentColor" stroke-width="2" stroke-linecap="round" stroke-linejoin="round"/>
</svg>
