<svg width="24" height="24" viewBox="0 0 24 24" fill="none" xmlns="http://www.w3.org/2000/svg">
<path d="M16.7806 3C16.5236 3 16.2692 3.05133 16.0323 3.15096C15.7969 3.24998 15.5836 3.39473 15.4046 3.5768L4.80995 14.1162C4.7313 14.1944 4.67423 14.2917 4.64432 14.3985L3.02383 20.1838C2.96119 20.4074 3.02409 20.6474 3.18836 20.8117C3.35263 20.9759 3.59274 21.0388 3.81645 20.9762L9.60391 19.3563C9.71075 19.3263 9.80805 19.2692 9.88632 19.1907L20.4294 8.60005L20.4312 8.59832C20.6111 8.41939 20.754 8.20673 20.8516 7.97248C20.9496 7.7375 21 7.48543 21 7.23085C21 6.97627 20.9496 6.72421 20.8516 6.48921C20.754 6.25497 20.6111 6.04229 20.4312 5.86338L20.4294 5.86166L18.1578 3.57815C17.9787 3.39544 17.7648 3.25023 17.5288 3.15096C17.2919 3.05133 17.0375 3 16.7806 3Z" fill="currentColor"/>
</svg>
