<svg width="24" height="24" viewBox="0 0 24 24" fill="none" xmlns="http://www.w3.org/2000/svg">
<g clip-path="url(#clip0_1790_4409)">
<path d="M9.29999 3.89999H14.7H9.29999ZM3.89999 6.59999H20.1H3.89999ZM18.3 6.59999L17.6688 16.0674C17.5741 17.4877 17.5268 18.198 17.22 18.7365C16.9499 19.2106 16.5425 19.5918 16.0515 19.8297C15.4938 20.1 14.782 20.1 13.3584 20.1H10.6416C9.21801 20.1 8.50622 20.1 7.9485 19.8297C7.45748 19.5918 7.05007 19.2106 6.77998 18.7365C6.47319 18.198 6.42584 17.4877 6.33115 16.0674L5.69999 6.59999" fill="currentColor" stroke="none" />
<path d="M9.29999 3.89999H14.7M3.89999 6.59999H20.1M18.3 6.59999L17.6688 16.0674C17.5741 17.4877 17.5268 18.198 17.22 18.7365C16.9499 19.2106 16.5425 19.5918 16.0515 19.8297C15.4938 20.1 14.782 20.1 13.3584 20.1H10.6416C9.21801 20.1 8.50622 20.1 7.9485 19.8297C7.45748 19.5918 7.05007 19.2106 6.77998 18.7365C6.47319 18.198 6.42584 17.4877 6.33115 16.0674L5.69999 6.59999" fill="none" stroke="currentColor" stroke-width="2" stroke-linecap="round" stroke-linejoin="round"/>
</g>
<defs>
<clipPath id="clip0_1790_4409">
<rect width="18" height="18" fill="white" transform="translate(3 3)"/>
</clipPath>
</defs>
</svg>
