<svg width="24" height="24" viewBox="0 0 24 24" fill="none" xmlns="http://www.w3.org/2000/svg">
<path fill-rule="evenodd" clip-rule="evenodd" d="M10.5792 6.30007C10.956 5.92499 11.4671 5.71429 12 5.71429C12.5329 5.71429 13.044 5.92499 13.4208 6.30007C13.6588 6.53706 13.831 6.82739 13.9255 7.14286H10.0745C10.169 6.82739 10.3412 6.53706 10.5792 6.30007ZM8.31293 7.14286C8.43391 6.36938 8.79842 5.64831 9.36144 5.08789C10.0612 4.39133 11.0104 4 12 4C12.9896 4 13.9388 4.39133 14.6386 5.08789C15.2016 5.64831 15.5661 6.36938 15.687 7.14286H18.8889C19.3645 7.14286 19.75 7.52662 19.75 8C19.75 8.47339 19.3645 8.85714 18.8889 8.85714H17.7407V18.2857C17.7407 18.7403 17.5593 19.1765 17.2364 19.4979C16.9134 19.8194 16.4753 20 16.0185 20H7.98148C7.52471 20 7.08666 19.8194 6.76369 19.4979C6.44071 19.1765 6.25926 18.7403 6.25926 18.2857V8.85714H5.11111C4.63553 8.85714 4.25 8.47339 4.25 8C4.25 7.52662 4.63553 7.14286 5.11111 7.14286H8.31293ZM9.7037 10.716C10.1 10.716 10.4213 11.0358 10.4213 11.4302V16.0034C10.4213 16.3978 10.1 16.7177 9.7037 16.7177C9.30739 16.7177 8.98611 16.3978 8.98611 16.0034V11.4302C8.98611 11.0358 9.30739 10.716 9.7037 10.716ZM15.0139 11.4302C15.0139 11.0358 14.6926 10.716 14.2963 10.716C13.9 10.716 13.5787 11.0358 13.5787 11.4302V16.0034C13.5787 16.3978 13.9 16.7177 14.2963 16.7177C14.6926 16.7177 15.0139 16.3978 15.0139 16.0034V11.4302Z" fill="currentColor" stroke="none"/>
</svg>
