<svg width="24" height="24" viewBox="0 0 24 24" fill="none" xmlns="http://www.w3.org/2000/svg">
<path fill-rule="evenodd" clip-rule="evenodd" d="M10.3959 5.58758C10.8213 5.16562 11.3983 4.92857 12 4.92857C12.6016 4.92857 13.1787 5.16562 13.6041 5.58758C13.8729 5.8542 14.0673 6.18082 14.174 6.53571H9.82605C9.93273 6.18082 10.1271 5.8542 10.3959 5.58758ZM7.83718 6.53571C7.97377 5.66556 8.38532 4.85435 9.02098 4.22388C9.81107 3.44024 10.8827 3 12 3C13.1173 3 14.1889 3.44024 14.979 4.22388C15.6147 4.85435 16.0263 5.66556 16.1628 6.53571H19.7778C20.3147 6.53571 20.75 6.96744 20.75 7.5C20.75 8.03257 20.3147 8.46429 19.7778 8.46429H18.4815V19.0714C18.4815 19.5829 18.2767 20.0735 17.912 20.4352C17.5474 20.7969 17.0527 21 16.537 21H7.46296C6.94726 21 6.45268 20.7969 6.08803 20.4352C5.72339 20.0735 5.51852 19.5829 5.51852 19.0714V8.46429H4.22222C3.68528 8.46429 3.25 8.03257 3.25 7.5C3.25 6.96744 3.68528 6.53571 4.22222 6.53571H7.83718ZM9.40741 10.5554C9.85486 10.5554 10.2176 10.9152 10.2176 11.359V16.5039C10.2176 16.9476 9.85486 17.3074 9.40741 17.3074C8.95995 17.3074 8.59722 16.9476 8.59722 16.5039V11.359C8.59722 10.9152 8.95995 10.5554 9.40741 10.5554ZM15.4028 11.359C15.4028 10.9152 15.04 10.5554 14.5926 10.5554C14.1451 10.5554 13.7824 10.9152 13.7824 11.359V16.5039C13.7824 16.9476 14.1451 17.3074 14.5926 17.3074C15.04 17.3074 15.4028 16.9476 15.4028 16.5039V11.359Z" fill="currentColor" stroke="none" />
</svg>
