<svg width="100" height="100" viewBox="0 0 100 100" fill="none" xmlns="http://www.w3.org/2000/svg">
  <path
    d="M49.2449 20.1779C46.2372 20.1779 41.2243 17 37.8824 17C34.5405 17 33.8259 20.4743 33.2038 21.2372C32.5817 22 27.5225 28.917 26.8542 29.9763C26.2624 30.9141 21.4799 38.0787 18.9993 50C18.6779 51.5444 18.4574 52.7086 18.1652 54.8696C17.873 57.0305 18.0546 59.41 18.0681 60.705C18.0817 62 18.2864 63.7021 18.4994 65.7273C19.0309 70.781 21.2527 73.993 22.1407 75.0968C22.3781 75.392 22.6239 75.6754 22.8791 75.9554C23.9851 77.1687 27.5886 80.6308 33.8722 82.1462C41.5584 84 47.2396 84 47.2398 84H53.6838C53.684 84 59.3652 84 67.0514 82.1462C73.3349 80.6308 76.9384 77.1687 78.0445 75.9554C78.2997 75.6754 78.5454 75.392 78.7829 75.0968C79.6709 73.993 81.8927 70.781 82.4242 65.7273C82.6372 63.7021 82.8419 62 82.8555 60.705C82.869 59.41 83.0506 57.0305 82.7584 54.8696C82.4662 52.7086 82.2457 51.5444 81.9243 50C79.4437 38.0787 74.6611 30.9141 74.0694 29.9763C73.401 28.917 68.3419 22 67.7198 21.2372C67.0977 20.4743 66.3831 17 63.0412 17C59.6992 17 54.6864 20.1779 51.6787 20.1779H49.2449Z"
    fill="white" />
  <path
    d="M51.9184 20.1779H49.2449C46.2372 20.1779 41.2243 17 37.8824 17C34.5405 17 33.8259 20.4743 33.2038 21.2372C32.5817 22 27.5225 28.917 26.8542 29.9763C26.2624 30.9141 21.4799 38.0787 18.9993 50C18.6779 51.5444 18.4574 52.7086 18.1652 54.8696C17.873 57.0305 18.0546 59.41 18.0681 60.705C18.0817 62 18.2864 63.7021 18.4994 65.7273C19.0309 70.781 21.2527 73.993 22.1407 75.0968C22.3781 75.392 22.6239 75.6754 22.8791 75.9554C23.9851 77.1687 27.5886 80.6308 33.8722 82.1462C41.5584 84 47.2396 84 47.2398 84C47.2398 84 47.2398 84 47.2398 84H53.9236M49.0052 20.1779H51.6787C54.6864 20.1779 59.6993 17 63.0412 17C66.3831 17 67.0977 20.4743 67.7198 21.2372C68.3419 22 73.401 28.917 74.0694 29.9763C74.6611 30.9141 79.4437 38.0787 81.9243 50C82.2457 51.5444 82.4662 52.7086 82.7584 54.8696C83.0506 57.0305 82.869 59.41 82.8555 60.705C82.8419 62 82.6372 63.7021 82.4242 65.7273C81.8927 70.781 79.6709 73.993 78.7829 75.0968C78.5454 75.392 78.2997 75.6754 78.0445 75.9554C76.9384 77.1687 73.3349 80.6308 67.0514 82.1462C59.3652 84 53.684 84 53.6838 84C53.6838 84 53.6838 84 53.6838 84H47"
    stroke="#222222" stroke-width="4" stroke-linecap="round" />
  <circle cx="38.5" cy="41.5" r="3.5" fill="#222222" />
  <circle cx="61.5" cy="41.5" r="3.5" fill="#222222" />
  <path d="M45 47C45 47 47.5 47 48.75 45.1538C50 43.3077 50 41 50 41" stroke="#222222"
    stroke-width="2" stroke-linecap="round" />
  <path d="M55 47C55 47 52.5 47 51.25 45.1538C50 43.3077 50 41 50 41" stroke="#222222"
    stroke-width="2" stroke-linecap="round" />
  <path
    d="M46.8917 63.684C46.8917 63.804 46.8757 63.92 46.8437 64.032C46.8117 64.144 46.7557 64.244 46.6757 64.332C46.6437 64.38 46.5877 64.444 46.5077 64.524C46.4277 64.596 46.3197 64.7 46.1837 64.836C45.8477 65.116 45.5277 65.412 45.2237 65.724C44.9277 66.036 44.6397 66.364 44.3597 66.708C44.2637 66.82 44.1677 66.936 44.0717 67.056C43.9757 67.176 43.8997 67.3 43.8437 67.428C43.7877 67.556 43.7597 67.692 43.7597 67.836C43.7677 67.98 43.8277 68.128 43.9397 68.28C44.1397 68.56 44.3517 68.828 44.5757 69.084C44.7997 69.34 45.0397 69.592 45.2957 69.84C45.4477 70 45.5997 70.156 45.7517 70.308C45.9117 70.46 46.0637 70.612 46.2077 70.764C46.3997 70.956 46.5157 71.16 46.5557 71.376C46.5957 71.584 46.5757 71.768 46.4957 71.928C46.4157 72.088 46.2837 72.204 46.0997 72.276C45.9237 72.348 45.7117 72.336 45.4637 72.24C45.3357 72.184 45.2117 72.108 45.0917 72.012C44.9717 71.924 44.8557 71.824 44.7437 71.712C44.6317 71.592 44.5237 71.472 44.4197 71.352C44.3157 71.232 44.2197 71.12 44.1317 71.016C42.6277 69.36 41.8757 68.264 41.8757 67.728C41.8757 67.32 42.1677 66.728 42.7517 65.952C42.9757 65.672 43.2237 65.38 43.4957 65.076C43.7677 64.764 44.0717 64.456 44.4077 64.152C44.6157 63.944 44.8277 63.74 45.0437 63.54C45.2677 63.332 45.5117 63.156 45.7757 63.012C45.8877 62.956 46.0077 62.932 46.1357 62.94C46.2717 62.94 46.3957 62.972 46.5077 63.036C46.6197 63.092 46.7117 63.176 46.7837 63.288C46.8557 63.4 46.8917 63.532 46.8917 63.684Z"
    fill="#222222" />
  <path
    d="M48.8702 72.18C48.7742 72.18 48.6822 72.164 48.5942 72.132C48.5062 72.1 48.4302 72.056 48.3662 72C48.3022 71.944 48.2542 71.876 48.2222 71.796C48.1902 71.716 48.1822 71.624 48.1982 71.52C48.1502 71.376 48.1462 71.248 48.1862 71.136C48.2262 71.016 48.2782 70.896 48.3422 70.776H48.3302C48.6102 70.152 48.8822 69.54 49.1462 68.94C49.4182 68.332 49.7022 67.728 49.9982 67.128C50.2622 66.568 50.5062 66.04 50.7302 65.544C50.9542 65.048 51.1742 64.56 51.3902 64.08C51.4302 63.992 51.4782 63.904 51.5342 63.816C51.5902 63.728 51.6542 63.66 51.7262 63.612C51.7982 63.556 51.8822 63.52 51.9782 63.504C52.0742 63.488 52.1902 63.508 52.3262 63.564C52.5342 63.652 52.6862 63.776 52.7822 63.936C52.8862 64.096 52.9182 64.28 52.8782 64.488C52.7662 64.776 52.6742 65.012 52.6022 65.196C52.5382 65.372 52.4702 65.536 52.3982 65.688C52.3342 65.84 52.2622 65.996 52.1822 66.156C52.1022 66.316 51.9982 66.524 51.8702 66.78C51.7502 67.036 51.5982 67.36 51.4142 67.752C51.2382 68.136 51.0142 68.632 50.7422 69.24C50.5982 69.568 50.4502 69.88 50.2982 70.176C50.1542 70.472 50.0102 70.768 49.8662 71.064C49.8182 71.152 49.7662 71.26 49.7102 71.388C49.6542 71.508 49.5942 71.64 49.5302 71.784C49.4662 71.92 49.3742 72.02 49.2542 72.084C49.1342 72.148 49.0062 72.18 48.8702 72.18Z"
    fill="#222222" />
  <path
    d="M54.0244 63.684C54.0244 63.532 54.0604 63.4 54.1324 63.288C54.2044 63.176 54.2964 63.092 54.4084 63.036C54.5204 62.972 54.6404 62.94 54.7684 62.94C54.9044 62.932 55.0284 62.956 55.1404 63.012C55.4044 63.156 55.6444 63.332 55.8604 63.54C56.0844 63.74 56.3004 63.944 56.5084 64.152C56.8444 64.456 57.1484 64.764 57.4204 65.076C57.6924 65.38 57.9404 65.672 58.1644 65.952C58.7484 66.728 59.0404 67.32 59.0404 67.728C59.0404 68.264 58.2884 69.36 56.7844 71.016C56.6964 71.12 56.6004 71.232 56.4964 71.352C56.3924 71.472 56.2844 71.592 56.1724 71.712C56.0604 71.824 55.9444 71.924 55.8244 72.012C55.7044 72.108 55.5804 72.184 55.4524 72.24C55.2044 72.336 54.9884 72.348 54.8044 72.276C54.6284 72.204 54.5004 72.088 54.4204 71.928C54.3404 71.768 54.3204 71.584 54.3604 71.376C54.4004 71.16 54.5164 70.956 54.7084 70.764C54.8524 70.612 55.0004 70.46 55.1524 70.308C55.3124 70.156 55.4684 70 55.6204 69.84C55.8764 69.592 56.1164 69.34 56.3404 69.084C56.5644 68.828 56.7764 68.56 56.9764 68.28C57.0804 68.128 57.1364 67.98 57.1444 67.836C57.1524 67.692 57.1284 67.556 57.0724 67.428C57.0164 67.3 56.9404 67.176 56.8444 67.056C56.7484 66.936 56.6524 66.82 56.5564 66.708C56.2764 66.364 55.9844 66.036 55.6804 65.724C55.3844 65.412 55.0684 65.116 54.7324 64.836C54.5964 64.7 54.4884 64.596 54.4084 64.524C54.3284 64.444 54.2724 64.38 54.2404 64.332C54.1604 64.244 54.1044 64.144 54.0724 64.032C54.0404 63.92 54.0244 63.804 54.0244 63.684Z"
    fill="#222222" />
</svg>
  