<svg width="297" height="76" viewBox="0 0 297 76" fill="none" xmlns="http://www.w3.org/2000/svg">
<path d="M21.3877 53.82V20.22H29.0677V53.82H21.3877Z" fill="#222222"/>
<path d="M35.1611 22.14L40.8731 20.556L41.6411 20.364L42.1211 20.22L57.2411 40.476V20.22H64.6331V51.948L58.2011 53.676L57.6251 53.82L42.5531 33.612V53.82H35.1611V22.14Z" fill="#222222"/>
<path d="M70.4111 53.82V20.22H96.4751V27.804H78.0911V34.38H96.4751V41.964H78.0911V53.82H70.4111Z" fill="#222222"/>
<path d="M118.463 27.228C113.039 27.228 108.863 31.74 108.863 37.02C108.863 42.3 113.039 46.812 118.463 46.812C123.887 46.812 128.063 42.3 128.063 37.02C128.063 31.74 123.887 27.228 118.463 27.228ZM101.279 37.02C101.279 30.684 104.591 24.972 109.871 21.852C112.511 20.268 115.343 19.5 118.463 19.5C124.655 19.5 130.223 22.86 133.343 28.236C134.879 30.924 135.647 33.852 135.647 37.02C135.647 43.356 132.287 49.068 127.055 52.188C124.415 53.772 121.583 54.54 118.463 54.54C112.271 54.54 106.655 51.18 103.583 45.804C102.047 43.116 101.279 40.188 101.279 37.02Z" fill="#222222"/>
<path d="M165.876 20.22V27.804H155.412V53.82H147.732V27.804H137.268V20.22H165.876Z" fill="#222222"/>
<path d="M164.843 36.444L168.635 29.916C169.163 30.444 170.027 31.116 171.179 32.028C171.803 29.292 172.955 26.988 174.539 25.068C177.707 21.276 182.171 19.452 186.779 19.452C189.947 19.452 192.779 20.268 195.323 21.852C198.971 24.108 201.035 27.996 201.035 32.028C201.035 33.996 200.555 35.868 199.547 37.644C197.579 41.196 193.403 43.788 187.403 44.316C186.395 44.364 185.579 44.412 185.051 44.412C183.131 44.412 181.259 44.22 179.483 43.836C180.827 45.996 183.515 47.1 187.595 47.1C191.531 47.1 195.083 46.14 198.299 44.172L202.187 50.412C197.723 53.148 192.971 54.54 187.835 54.54C184.427 54.54 181.547 53.916 179.099 52.716C174.203 50.316 171.467 46.236 170.939 41.772L170.795 40.524C168.635 39.324 166.667 37.98 164.843 36.444ZM178.043 35.676C180.443 36.588 182.795 37.02 185.099 37.02C185.435 37.02 185.963 36.972 186.731 36.924C190.523 36.588 192.923 35.1 193.499 32.796C193.547 32.604 193.595 32.316 193.595 31.932C193.595 30.444 192.731 29.004 191.339 28.188C189.947 27.324 188.411 26.892 186.683 26.892C184.955 26.892 183.371 27.324 181.979 28.188C179.723 29.676 178.379 32.172 178.043 35.676Z" fill="#222222"/>
<path d="M204.355 51.852L217.891 20.22H225.571L239.155 51.852L232.003 54.588L228.595 46.62H214.915L211.507 54.588L204.355 51.852ZM217.795 39.852H225.715L221.731 30.54L217.795 39.852Z" fill="#222222"/>
<path d="M256.741 46.956L250.069 35.532V53.82H242.677V22.044L249.397 20.22L259.813 37.98L270.181 20.22L276.949 22.044V53.82H269.557V35.532L262.885 46.956H256.741Z" fill="#222222"/>
</svg>
