<svg width="114" height="117" viewBox="0 0 114 117" fill="none" xmlns="http://www.w3.org/2000/svg">
<path d="M54.9202 15.3523C50.619 15.3523 43.4502 10.8077 38.671 10.8077C33.8919 10.8077 32.8699 15.7762 31.9802 16.8671C31.0906 17.9581 23.8557 27.8499 22.8999 29.3648C22.0536 30.7058 15.2142 40.9517 11.6669 58C11.2073 60.2087 10.8919 61.8735 10.474 64.9638C10.0562 68.0542 10.3158 71.457 10.3352 73.3089C10.3546 75.1608 10.6474 77.5949 10.9519 80.4911C11.712 87.7186 14.8894 92.3117 16.1593 93.8898C16.4988 94.3128 16.8503 94.718 17.2152 95.1182C18.797 96.8532 23.9502 101.804 32.9361 103.972C43.9279 106.622 52.0527 106.622 52.0527 106.622H61.2681C61.2681 106.622 69.3928 106.622 80.3848 103.972C89.3703 101.804 94.5235 96.8532 96.1055 95.1182C96.4709 94.718 96.8215 94.3128 97.1611 93.8898C98.4313 92.3117 101.609 87.7186 102.369 80.4911C102.674 77.5949 102.966 75.1608 102.986 73.3089C103.005 71.457 103.265 68.0542 102.847 64.9638C102.429 61.8735 102.114 60.2087 101.654 58C98.1066 40.9517 91.2671 30.7058 90.421 29.3648C89.4656 27.8499 82.2302 17.9581 81.3405 16.8671C80.4509 15.7762 79.4289 10.8077 74.6498 10.8077C69.8706 10.8077 62.7019 15.3523 58.4006 15.3523H54.9202Z" fill="white"/>
<path d="M58.7434 15.3523H54.9202C50.619 15.3523 43.4502 10.8077 38.671 10.8077C33.8919 10.8077 32.8699 15.7762 31.9802 16.8671C31.0906 17.9581 23.8557 27.8499 22.8999 29.3648C22.0536 30.7058 15.2142 40.9517 11.6669 58C11.2073 60.2087 10.8919 61.8735 10.474 64.9638C10.0562 68.0542 10.3158 71.4569 10.3352 73.3089C10.3546 75.1608 10.6474 77.5949 10.9519 80.4911C11.712 87.7186 14.8894 92.3117 16.1593 93.8898C16.4988 94.3128 16.8503 94.718 17.2152 95.1182C18.797 96.8532 23.9502 101.804 32.9361 103.972C43.9279 106.622 52.0527 106.622 52.0527 106.622H61.6109M54.5773 15.3523H58.4006C62.7019 15.3523 69.8706 10.8077 74.6498 10.8077C79.4289 10.8077 80.4509 15.7762 81.3405 16.8671C82.2302 17.9581 89.4656 27.8499 90.421 29.3648C91.2671 30.7058 98.1066 40.9517 101.654 58C102.114 60.2087 102.429 61.8735 102.847 64.9638C103.265 68.0542 103.005 71.4569 102.986 73.3089C102.966 75.1608 102.674 77.5949 102.369 80.4911C101.609 87.7186 98.4313 92.3117 97.1612 93.8898C96.8215 94.3128 96.4709 94.718 96.1055 95.1182C94.5235 96.8532 89.3703 101.804 80.3848 103.972C69.3928 106.622 61.2681 106.622 61.2681 106.622H51.7098" stroke="#222222" stroke-width="5.72028" stroke-linecap="round"/>
<path d="M39.5542 50.8497C42.3185 50.8497 44.5594 48.6087 44.5594 45.8444C44.5594 43.0801 42.3185 40.8392 39.5542 40.8392C36.7899 40.8392 34.549 43.0801 34.549 45.8444C34.549 48.6087 36.7899 50.8497 39.5542 50.8497Z" fill="#222222"/>
<path d="M72.4458 50.8497C75.2101 50.8497 77.451 48.6087 77.451 45.8444C77.451 43.0801 75.2101 40.8392 72.4458 40.8392C69.6815 40.8392 67.4406 43.0801 67.4406 45.8444C67.4406 48.6087 69.6815 50.8497 72.4458 50.8497Z" fill="#222222"/>
<path d="M48.8497 53.7098C48.8497 53.7098 52.4248 53.7098 54.2124 51.0696C56 48.4296 56 45.1294 56 45.1294" stroke="#222222" stroke-width="2.86014" stroke-linecap="round"/>
<path d="M63.1503 53.7098C63.1503 53.7098 59.5752 53.7098 57.7876 51.0696C56 48.4296 56 45.1294 56 45.1294" stroke="#222222" stroke-width="2.86014" stroke-linecap="round"/>
<path d="M51.555 77.5691C51.555 77.7407 51.532 77.9066 51.4863 78.0668C51.4406 78.2269 51.3604 78.3699 51.246 78.4958C51.2002 78.5644 51.1202 78.656 51.0058 78.7704C50.8914 78.8733 50.737 79.022 50.5424 79.2166C50.0619 79.617 49.6043 80.0403 49.1695 80.4865C48.7463 80.9327 48.3344 81.4017 47.934 81.8937C47.7967 82.0538 47.6594 82.2197 47.5222 82.3913C47.3848 82.5629 47.2762 82.7402 47.196 82.9233C47.116 83.1064 47.076 83.3008 47.076 83.5068C47.0874 83.7126 47.1732 83.9244 47.3334 84.1417C47.6194 84.5421 47.9226 84.9254 48.2429 85.2915C48.5632 85.6579 48.9065 86.0184 49.2725 86.373C49.4899 86.6014 49.7073 86.8248 49.9247 87.0423C50.1535 87.2588 50.3708 87.4763 50.5768 87.6938C50.8514 87.9689 51.0172 88.2599 51.0744 88.5687C51.1316 88.8667 51.103 89.1298 50.9886 89.3582C50.8742 89.5876 50.6854 89.7535 50.4223 89.8558C50.1706 89.9591 49.8675 89.9422 49.5127 89.8051C49.3297 89.7247 49.1525 89.6164 48.9808 89.4784C48.8092 89.3533 48.6433 89.2103 48.4831 89.0494C48.323 88.8786 48.1685 88.7068 48.0198 88.535C47.8711 88.3632 47.7338 88.2033 47.608 88.0543C45.4571 85.6857 44.3817 84.1188 44.3817 83.3523C44.3817 82.7688 44.7993 81.9223 45.6345 80.8125C45.9548 80.4121 46.3094 79.9945 46.6984 79.5598C47.0874 79.1136 47.5222 78.6731 48.0026 78.2384C48.3001 77.9409 48.6033 77.6492 48.9121 77.3631C49.2325 77.0657 49.5815 76.8141 49.959 76.6081C50.1191 76.528 50.2908 76.4937 50.4738 76.5051C50.6683 76.5051 50.8456 76.5509 51.0058 76.6424C51.166 76.7225 51.2976 76.8427 51.4004 77.0028C51.5034 77.1629 51.555 77.3517 51.555 77.5691Z" fill="#222222"/>
<path d="M54.3843 89.7187C54.2471 89.7187 54.1155 89.6959 53.9897 89.6502C53.8637 89.6045 53.7551 89.542 53.6635 89.4615C53.5721 89.3811 53.5034 89.2837 53.4577 89.1695C53.4119 89.0553 53.4005 88.9242 53.4233 88.7753C53.3547 88.5687 53.3489 88.386 53.4061 88.2261C53.4633 88.0543 53.5377 87.8825 53.6293 87.7107H53.6121C54.0125 86.8189 54.4015 85.9439 54.779 85.0855C55.168 84.216 55.5742 83.3523 55.9974 82.4943C56.375 81.6935 56.7239 80.9383 57.0442 80.229C57.3646 79.5197 57.6792 78.8218 57.9881 78.1354C58.0453 78.0095 58.1139 77.8837 58.1941 77.7579C58.2741 77.6321 58.3657 77.5347 58.4686 77.4661C58.5715 77.3861 58.6917 77.3345 58.829 77.3117C58.9663 77.2888 59.1321 77.3174 59.3266 77.3975C59.6241 77.5233 59.8414 77.7007 59.9788 77.9295C60.1274 78.1583 60.1732 78.4214 60.116 78.7188C59.9558 79.1308 59.8243 79.4682 59.7214 79.7314C59.6298 79.983 59.5326 80.2176 59.4296 80.435C59.3381 80.6523 59.2351 80.8754 59.1207 81.1042C59.0063 81.3331 58.8576 81.6305 58.6745 81.9965C58.5029 82.3627 58.2855 82.826 58.0225 83.3866C57.7707 83.9358 57.4504 84.6451 57.0614 85.5149C56.8555 85.9837 56.6438 86.4296 56.4264 86.8526C56.2206 87.2767 56.0146 87.6997 55.8086 88.1228C55.74 88.2489 55.6656 88.4029 55.5856 88.5866C55.5055 88.7584 55.4197 88.9471 55.3282 89.1527C55.2366 89.3473 55.1051 89.4903 54.9335 89.5817C54.7619 89.673 54.5788 89.7187 54.3843 89.7187Z" fill="#222222"/>
<path d="M61.7551 77.5691C61.7551 77.3517 61.8067 77.1629 61.9096 77.0028C62.0125 76.8427 62.1441 76.7225 62.3043 76.6424C62.4645 76.5509 62.6361 76.5051 62.8191 76.5051C63.0136 76.4937 63.191 76.528 63.3511 76.6081C63.7286 76.8141 64.0718 77.0657 64.3808 77.3631C64.7011 77.6492 65.01 77.9409 65.3075 78.2384C65.7879 78.6731 66.2227 79.1136 66.6117 79.5598C67.0006 79.9945 67.3553 80.4121 67.6756 80.8125C68.5108 81.9223 68.9284 82.7688 68.9284 83.3523C68.9284 84.1188 67.853 85.6857 65.7021 88.0543C65.5763 88.2033 65.439 88.3632 65.2903 88.535C65.1415 88.7068 64.9871 88.8786 64.8269 89.0494C64.6668 89.2103 64.5009 89.3533 64.3293 89.4784C64.1576 89.6164 63.9804 89.7247 63.7973 89.8051C63.4426 89.9422 63.1338 89.9591 62.8706 89.8558C62.6189 89.7535 62.4359 89.5876 62.3215 89.3582C62.2071 89.1298 62.1785 88.8667 62.2357 88.5687C62.2929 88.2599 62.4587 87.9689 62.7333 87.6938C62.9392 87.4763 63.1509 87.2588 63.3682 87.0423C63.597 86.8248 63.8202 86.6014 64.0376 86.373C64.4036 86.0184 64.7469 85.6579 65.0672 85.2915C65.3875 84.9254 65.6907 84.5421 65.9767 84.1417C66.1255 83.9244 66.2055 83.7126 66.2169 83.5068C66.2284 83.3008 66.1941 83.1064 66.114 82.9233C66.0339 82.7402 65.9253 82.5629 65.7879 82.3913C65.6507 82.2197 65.5133 82.0538 65.3761 81.8937C64.9757 81.4017 64.5581 80.9327 64.1234 80.4865C63.7 80.0403 63.2482 79.617 62.7676 79.2166C62.5731 79.022 62.4187 78.8733 62.3043 78.7704C62.1899 78.656 62.1098 78.5644 62.0641 78.4958C61.9497 78.3699 61.8695 78.2269 61.8237 78.0668C61.7781 77.9066 61.7551 77.7407 61.7551 77.5691Z" fill="#222222"/>
</svg>
