<svg width="298" height="75" viewBox="0 0 298 76" fill="none" xmlns="http://www.w3.org/2000/svg">
<path d="M21.8879 53.82V20.22H29.5679V53.82H21.8879Z" fill="#222222"/>
<path d="M35.6612 22.14L41.3732 20.556L42.1413 20.364L42.6213 20.22L57.7413 40.476V20.22H65.1333V51.948L58.7013 53.676L58.1252 53.82L43.0532 33.612V53.82H35.6612V22.14Z" fill="#222222"/>
<path d="M70.9113 53.82V20.22H96.9753V27.804H78.5913V34.38H96.9753V41.964H78.5913V53.82H70.9113Z" fill="#222222"/>
<path d="M118.963 27.228C113.539 27.228 109.363 31.74 109.363 37.02C109.363 42.3 113.539 46.812 118.963 46.812C124.387 46.812 128.563 42.3 128.563 37.02C128.563 31.74 124.387 27.228 118.963 27.228ZM101.779 37.02C101.779 30.684 105.091 24.972 110.371 21.852C113.011 20.268 115.843 19.5 118.963 19.5C125.155 19.5 130.723 22.86 133.843 28.236C135.379 30.924 136.147 33.852 136.147 37.02C136.147 43.356 132.787 49.068 127.555 52.188C124.915 53.772 122.083 54.54 118.963 54.54C112.771 54.54 107.155 51.18 104.083 45.804C102.547 43.116 101.779 40.188 101.779 37.02Z" fill="#222222"/>
<path d="M166.376 20.22V27.804H155.912V53.82H148.232V27.804H137.768V20.22H166.376Z" fill="#222222"/>
<path d="M165.343 36.444L169.135 29.916C169.663 30.444 170.527 31.116 171.679 32.028C172.303 29.292 173.455 26.988 175.039 25.068C178.207 21.276 182.671 19.452 187.279 19.452C190.447 19.452 193.279 20.268 195.823 21.852C199.471 24.108 201.535 27.996 201.535 32.028C201.535 33.996 201.055 35.868 200.047 37.644C198.079 41.196 193.903 43.788 187.903 44.316C186.895 44.364 186.079 44.412 185.551 44.412C183.631 44.412 181.759 44.22 179.983 43.836C181.327 45.996 184.015 47.1 188.095 47.1C192.031 47.1 195.583 46.14 198.799 44.172L202.687 50.412C198.223 53.148 193.471 54.54 188.335 54.54C184.927 54.54 182.047 53.916 179.599 52.716C174.703 50.316 171.967 46.236 171.439 41.772L171.295 40.524C169.135 39.324 167.167 37.98 165.343 36.444ZM178.543 35.676C180.943 36.588 183.295 37.02 185.599 37.02C185.935 37.02 186.463 36.972 187.231 36.924C191.023 36.588 193.423 35.1 193.999 32.796C194.047 32.604 194.095 32.316 194.095 31.932C194.095 30.444 193.231 29.004 191.839 28.188C190.447 27.324 188.911 26.892 187.183 26.892C185.455 26.892 183.871 27.324 182.479 28.188C180.223 29.676 178.879 32.172 178.543 35.676Z" fill="#222222"/>
<path d="M204.855 51.852L218.391 20.22H226.071L239.655 51.852L232.503 54.588L229.095 46.62H215.415L212.007 54.588L204.855 51.852ZM218.295 39.852H226.215L222.231 30.54L218.295 39.852Z" fill="#222222"/>
<path d="M257.241 46.956L250.569 35.532V53.82H243.177V22.044L249.897 20.22L260.313 37.98L270.681 20.22L277.449 22.044V53.82H270.057V35.532L263.385 46.956H257.241Z" fill="#222222"/>
</svg>
