<svg width="24" height="24" viewBox="0 0 24 24" fill="none" xmlns="http://www.w3.org/2000/svg">
<path d="M21.2308 5H2.76923C2.3444 5 2 5.3731 2 5.83333V19.1667C2 19.6268 2.3444 20 2.76923 20H21.2308C21.6555 20 22 19.6268 22 19.1667V5.83333C22 5.3731 21.6555 5 21.2308 5Z" fill="fill" stroke="none"/>
<path d="M21.2308 5H2.76923C2.3444 5 2 5.3731 2 5.83333V19.1667C2 19.6268 2.3444 20 2.76923 20H21.2308C21.6555 20 22 19.6268 22 19.1667V5.83333C22 5.3731 21.6555 5 21.2308 5Z" stroke="stroke" stroke-linecap="round" stroke-linejoin="round" fill="none"/>
<path d="M8.15384 10.4167L5.46153 12.9167L7.76923 15" stroke="stroke" stroke-linecap="round" stroke-linejoin="round" fill="none"/>
<path d="M16.2308 10.8333L18.5385 12.9167L15.8462 15.4167" stroke="stroke" stroke-linecap="round" stroke-linejoin="round" fill="none"/>
<path d="M10.8461 16.25L13.1538 8.75" stroke="stroke" stroke-linecap="round" stroke-linejoin="round" fill="none"/>
</svg>
