<svg width="24" height="24" viewBox="0 0 24 24" fill="none" xmlns="http://www.w3.org/2000/svg">
<path d="M18.2002 9.69287C19.0562 9.69298 19.75 10.3814 19.75 11.231V20.4614C19.75 21.3111 19.0562 22.0004 18.2002 22.0005H5.7998C4.94386 22.0004 4.25 21.3111 4.25 20.4614V11.231C4.25 10.3814 4.94386 9.69298 5.7998 9.69287H18.2002ZM11.8066 13.2407C10.835 13.2407 10.0469 14.0288 10.0469 15.0005C10.0471 15.9719 10.8351 16.7593 11.8066 16.7593C12.778 16.7591 13.5652 15.9718 13.5654 15.0005C13.5654 14.0289 12.7781 13.2409 11.8066 13.2407Z" fill="fill" stroke="none"/>
<path d="M18.2 9.69231H5.8C4.94397 9.69231 4.25 10.3811 4.25 11.2308V20.4615C4.25 21.3112 4.94397 22 5.8 22H18.2C19.0561 22 19.75 21.3112 19.75 20.4615V11.2308C19.75 10.3811 19.0561 9.69231 18.2 9.69231Z" stroke="stroke" stroke-linecap="round" stroke-linejoin="round" fill="none"/>
<path d="M17.425 9.69231V7.38462C17.425 5.95652 16.8535 4.58692 15.836 3.57712C14.8187 2.56731 13.4388 2 12 2C10.5612 2 9.18132 2.56731 8.16395 3.57712C7.14656 4.58692 6.575 5.95652 6.575 7.38462V9.69231" stroke="stroke" stroke-linecap="round" stroke-linejoin="round" fill="none"/>
<path d="M11.8062 16.2594C12.5018 16.2594 13.0656 15.6955 13.0656 15C13.0656 14.3045 12.5018 13.7406 11.8062 13.7406C11.1107 13.7406 10.5469 14.3045 10.5469 15C10.5469 15.6955 11.1107 16.2594 11.8062 16.2594Z" stroke="stroke" stroke-linecap="round" stroke-linejoin="round" fill="none"/>
</svg>
