<svg width="24" height="24" viewBox="0 0 24 24" fill="none" xmlns="http://www.w3.org/2000/svg">
<path d="M16.9024 20.4615C16.9024 20.8695 16.7396 21.2609 16.4499 21.5494C16.1603 21.8378 15.7674 22 15.3577 22H4.54471C4.13502 22 3.74212 21.8378 3.45243 21.5494C3.16275 21.2609 3 20.8695 3 20.4615V3.53846C3 3.13043 3.16275 2.73912 3.45243 2.4506C3.74212 2.16209 4.13502 2 4.54471 2H15.3577C15.7674 2 16.1603 2.16209 16.4499 2.4506C16.7396 2.73912 16.9024 3.13043 16.9024 3.53846V20.4615Z" fill="fill" stroke="none"/>
<path d="M16.9024 17.3846V20.4615C16.9024 20.8695 16.7396 21.2609 16.4499 21.5494C16.1603 21.8378 15.7674 22 15.3577 22H4.54471C4.13502 22 3.74212 21.8378 3.45243 21.5494C3.16275 21.2609 3 20.8695 3 20.4615V3.53846C3 3.13043 3.16275 2.73912 3.45243 2.4506C3.74212 2.16209 4.13502 2 4.54471 2H15.3577C15.7674 2 16.1603 2.16209 16.4499 2.4506C16.7396 2.73912 16.9024 3.13043 16.9024 3.53846V6.61538" stroke="stroke" stroke-linecap="round" stroke-linejoin="round" fill="none"/>
<path d="M11.1868 11.9999H21.9997" stroke="stroke" stroke-linecap="round" stroke-linejoin="round" fill="none"/>
<path d="M18.9106 8.92296L22 11.9999L18.9106 15.0768" stroke="stroke" stroke-linecap="round" stroke-linejoin="round" fill="none"/>
</svg>
