<svg width="24" height="24" viewBox="0 0 24 24" fill="none" xmlns="http://www.w3.org/2000/svg">
<path fill-rule="evenodd" clip-rule="evenodd" d="M5.42857 19.5378C6.77918 17.324 9.217 15.8462 12 15.8462C14.783 15.8462 17.2208 17.324 18.5714 19.5378C20.6725 17.7046 22 15.0074 22 12C22 6.47715 17.5229 2 12 2C6.47715 2 2 6.47715 2 12C2 15.0074 3.32754 17.7046 5.42857 19.5378ZM12 13.5385C14.1242 13.5385 15.8462 11.8165 15.8462 9.69231C15.8462 7.56814 14.1242 5.84615 12 5.84615C9.87583 5.84615 8.15385 7.56814 8.15385 9.69231C8.15385 11.8165 9.87583 13.5385 12 13.5385Z" fill="fill" stroke="none"/>
<path d="M12 13.5385C14.1242 13.5385 15.8462 11.8165 15.8462 9.6923C15.8462 7.56813 14.1242 5.84615 12 5.84615C9.87585 5.84615 8.15386 7.56813 8.15386 9.6923C8.15386 11.8165 9.87585 13.5385 12 13.5385Z" stroke="stroke" stroke-linecap="round" stroke-linejoin="round" fill="none"/>
<path d="M5.43076 19.5385C6.11728 18.4115 7.08216 17.4802 8.23262 16.834C9.38308 16.1877 10.6804 15.8483 12 15.8483C13.3195 15.8483 14.6169 16.1877 15.7674 16.834C16.9179 17.4802 17.8826 18.4115 18.5692 19.5385" stroke="stroke" stroke-linecap="round" stroke-linejoin="round" fill="none"/>
<path d="M12 22C17.5229 22 22 17.5229 22 12C22 6.47715 17.5229 2 12 2C6.47715 2 2 6.47715 2 12C2 17.5229 6.47715 22 12 22Z" stroke="stroke" stroke-linecap="round" stroke-linejoin="round" fill="none"/>
</svg>
