<svg width="24" height="24" viewBox="0 0 24 24" fill="none" xmlns="http://www.w3.org/2000/svg">
<path d="M9.51538 14.0833C5.6409 14.0833 2.5 17.2733 2.5 21.2083V22H15.7069C16.1515 22 16.5308 21.6599 16.5308 21.2083C16.5308 17.2733 13.3899 14.0833 9.51538 14.0833Z" fill="fill" stroke="none"/>
<path d="M9.5154 10.9167C11.6679 10.9167 13.4128 9.14446 13.4128 6.95833C13.4128 4.77221 11.6679 3 9.5154 3C7.36291 3 5.61797 4.77221 5.61797 6.95833C5.61797 9.14446 7.36291 10.9167 9.5154 10.9167Z" fill="fill" stroke="none"/>
<path d="M9.5154 10.9167C11.6679 10.9167 13.4128 9.14446 13.4128 6.95833C13.4128 4.77221 11.6679 3 9.5154 3C7.36291 3 5.61797 4.77221 5.61797 6.95833C5.61797 9.14446 7.36291 10.9167 9.5154 10.9167Z" fill="fill" stroke="stroke" stroke-linecap="round" stroke-linejoin="round"/>
<path d="M11.8538 22H2.5V21.1417C2.51241 19.9347 2.82579 18.7508 3.41086 17.7004C3.99594 16.6499 4.83363 15.7672 5.84567 15.1346C6.85772 14.5021 8.01111 14.1404 9.1981 14.0833C9.30393 14.0782 9.40972 14.0756 9.51538 14.0753C9.62105 14.0756 9.72686 14.0782 9.83268 14.0833C11.0197 14.1404 12.1731 14.5021 13.1851 15.1346C13.7671 15.4984 14.2914 15.9448 14.7432 16.4583" fill="fill" stroke="none"/>
<path d="M11.8538 22H2.5V21.1417C2.51241 19.9347 2.82579 18.7508 3.41086 17.7004C3.99594 16.6499 4.83363 15.7672 5.84567 15.1346C6.85772 14.5021 8.01111 14.1404 9.1981 14.0833C9.30393 14.0782 9.40972 14.0756 9.51538 14.0753C9.62105 14.0756 9.72686 14.0782 9.83268 14.0833C11.0197 14.1404 12.1731 14.5021 13.1851 15.1346C13.7671 15.4984 14.2914 15.9448 14.7432 16.4583" stroke="stroke" stroke-linecap="round" stroke-linejoin="round" fill="none"/>
<path d="M14.9718 20.4166H22.7667Z" fill="fill" stroke="none"/>
<path d="M14.9718 20.4166H22.7667" stroke="stroke" stroke-linecap="round" stroke-linejoin="round" fill="none"/>
</svg>
