<svg width="24" height="24" viewBox="0 0 24 24" fill="none" xmlns="http://www.w3.org/2000/svg">
<path d="M12.0762 6C15.1779 6.00021 17.7358 8.3243 18.1055 11.3262H16.5898C16.2318 9.15569 14.348 7.50021 12.0762 7.5C9.54897 7.50023 7.50023 9.54897 7.5 12.0762C7.50017 13.9835 8.6673 15.6172 10.3262 16.3047V17.8955C7.8236 17.1438 6.00019 14.8235 6 12.0762C6.00023 8.72054 8.72054 6.00023 12.0762 6Z" fill="currentColor" stroke="none" />
<path d="M20.6154 12H11.3846C11.1722 12 11 12.1722 11 12.3846V18.5385C11 18.7508 11.1722 18.9231 11.3846 18.9231H20.6154C20.8278 18.9231 21 18.7508 21 18.5385V12.3846C21 12.1722 20.8278 12 20.6154 12Z" stroke="currentColor" fill="none" stroke-width="1.5" stroke-linecap="round" stroke-linejoin="round"/>
<path d="M15.2308 18.9231L14.4615 20.8461" stroke="currentColor" fill="none" stroke-width="1.5" stroke-linecap="round" stroke-linejoin="round"/>
<path d="M16.7692 18.9231L17.5384 20.8461" stroke="currentColor" fill="none" stroke-width="1.5" stroke-linecap="round" stroke-linejoin="round"/>
<path d="M13.6923 20.8461H18.3077" stroke="currentColor" fill="none" stroke-width="1.5" stroke-linecap="round" stroke-linejoin="round"/>
<path d="M3 12H3.96428" stroke="currentColor" fill="none" stroke-width="1.5" stroke-linecap="round"/>
<path d="M5.63614 5.63614L6.31795 6.31803" stroke="currentColor" fill="none" stroke-width="1.5" stroke-linecap="round"/>
<path d="M12 3V3.96428" stroke="currentColor" fill="none" stroke-width="1.5" stroke-linecap="round"/>
<path d="M5.63599 18.3639L6.31779 17.6821M18.3639 5.63606L17.6821 6.31787" stroke="currentColor" fill="none" stroke-width="1.5" stroke-linecap="round"/>
</svg>
