<svg width="24" height="24" viewBox="0 0 24 24" fill="none" xmlns="http://www.w3.org/2000/svg">
<path d="M12.112 4.25879C12.369 4.29766 12.5915 4.4678 12.693 4.71289C12.8091 4.99313 12.7444 5.31579 12.53 5.53027C11.7424 6.31788 11.2995 7.38622 11.2995 8.5C11.2995 9.51388 11.6679 10.4889 12.3278 11.25H11.3845C11.1097 11.2501 10.8572 11.3472 10.6608 11.5098C10.1032 10.6135 9.79949 9.57259 9.79949 8.5C9.79949 7.60935 10.0092 6.74044 10.3991 5.95801C9.81034 6.11401 9.24517 6.35673 8.72235 6.67871L8.52703 6.80371C7.56367 7.44759 6.79953 8.34581 6.31805 9.39648L6.22528 9.6084C5.75237 10.7503 5.62872 12.0074 5.86981 13.2197L5.91863 13.4453C6.18592 14.5698 6.76131 15.5995 7.58074 16.4189C8.32549 17.1637 9.24434 17.7055 10.2497 17.999V18.5381C10.2497 19.1645 10.7579 19.6727 11.3845 19.6729H13.0847C12.3195 19.7811 11.5393 19.7759 10.7702 19.6523L10.488 19.6016C8.98475 19.3025 7.603 18.5642 6.51922 17.4805C5.50309 16.4643 4.79108 15.1865 4.45965 13.792L4.39813 13.5117C4.09925 12.0085 4.25306 10.4502 4.83953 9.03418L4.95477 8.77148C5.55189 7.46857 6.49922 6.35406 7.69403 5.55566L7.93524 5.40137C9.15561 4.64971 10.5626 4.25006 11.9997 4.25L12.112 4.25879Z" fill="currentColor" stroke="none" />
<path d="M20.6154 12H11.3846C11.1722 12 11 12.1722 11 12.3846V18.5385C11 18.7508 11.1722 18.9231 11.3846 18.9231H20.6154C20.8278 18.9231 21 18.7508 21 18.5385V12.3846C21 12.1722 20.8278 12 20.6154 12Z" stroke="currentColor" fill="none" stroke-width="1.5" stroke-linecap="round" stroke-linejoin="round"/>
<path d="M15.2308 18.9231L14.4615 20.8461" stroke="currentColor" fill="none" stroke-width="1.5" stroke-linecap="round" stroke-linejoin="round"/>
<path d="M16.7692 18.9231L17.5385 20.8461" stroke="currentColor" fill="none" stroke-width="1.5" stroke-linecap="round" stroke-linejoin="round"/>
<path d="M13.6923 20.8461H18.3077" stroke="currentColor" fill="none" stroke-width="1.5" stroke-linecap="round" stroke-linejoin="round"/>
</svg>
