<svg width="24" height="24" viewBox="0 0 24 24" fill="none" xmlns="http://www.w3.org/2000/svg">
<path d="M15.625 4.8C16.4678 4.8 16.8892 4.8 17.2349 4.892C18.1731 5.14166 18.906 5.86944 19.1574 6.80119C19.25 7.14454 19.25 7.56303 19.25 8.4V16.68C19.25 18.1921 19.25 18.9482 18.9537 19.5258C18.693 20.0338 18.2771 20.4469 17.7655 20.7057C17.184 21 16.4226 21 14.9 21H9.1C7.57736 21 6.81604 21 6.23446 20.7057C5.7229 20.4469 5.30698 20.0338 5.04633 19.5258C4.75 18.9482 4.75 18.1921 4.75 16.68V8.4C4.75 7.56303 4.75 7.14454 4.84264 6.80119C5.09403 5.86944 5.82687 5.14166 6.76509 4.892C7.11082 4.8 7.53221 4.8 8.375 4.8M9.28125 14.7L11.0938 16.5L15.1719 12.45M9.825 6.6H14.175C14.6825 6.6 14.9363 6.6 15.1302 6.50191C15.3007 6.41562 15.4393 6.27794 15.5262 6.10859C15.625 5.91607 15.625 5.66405 15.625 5.16V4.44C15.625 3.93595 15.625 3.68393 15.5262 3.49141C15.4393 3.32206 15.3007 3.18438 15.1302 3.09809C14.9363 3 14.6825 3 14.175 3H9.825C9.31745 3 9.06368 3 8.86982 3.09809C8.6993 3.18438 8.56066 3.32206 8.47378 3.49141C8.375 3.68393 8.375 3.93595 8.375 4.44V5.16C8.375 5.66405 8.375 5.91607 8.47378 6.10859C8.56066 6.27794 8.6993 6.41562 8.86982 6.50191C9.06368 6.6 9.31745 6.6 9.825 6.6Z" fill="none" stroke="currentColor" stroke-width="2" stroke-linecap="round" stroke-linejoin="round"/>
</svg>
