<svg width="24" height="24" viewBox="0 0 24 24" fill="none" xmlns="http://www.w3.org/2000/svg">
<path d="M17.2041 4.51074C18.2128 4.613 19 5.46435 19 6.5V18.5C19 19.5357 18.2128 20.387 17.2041 20.4893L17 20.5H7L6.7959 20.4893C5.78722 20.387 5 19.5357 5 18.5V6.5C5 5.46435 5.78722 4.613 6.7959 4.51074L7 4.5H8.32422C8.27698 4.65857 8.25 4.82608 8.25 5V6H7C6.72386 6 6.5 6.22386 6.5 6.5V18.5C6.5 18.7761 6.72386 19 7 19H17C17.2761 19 17.5 18.7761 17.5 18.5V6.5C17.5 6.22386 17.2761 6 17 6H15.75V5C15.75 4.82608 15.723 4.65857 15.6758 4.5H17L17.2041 4.51074Z" fill="currentColor" stroke="none"/>
<path d="M9 5C9 4.44772 9.44772 4 10 4H14C14.5523 4 15 4.44772 15 5V6C15 6.55228 14.5523 7 14 7H10C9.44772 7 9 6.55228 9 6V5Z" stroke="currentColor" fill="none" stroke-width="1.5" stroke-linejoin="round"/>
</svg>
