<svg width="24" height="24" viewBox="0 0 24 24" fill="none" xmlns="http://www.w3.org/2000/svg">
<path d="M15.5 4.8C16.3137 4.8 16.7206 4.8 17.0544 4.892C17.9603 5.14166 18.6678 5.86944 18.9106 6.80119C19 7.14454 19 7.56303 19 8.4V16.68C19 18.1921 19 18.9482 18.7139 19.5258C18.4622 20.0338 18.0607 20.4469 17.5667 20.7057C17.0052 21 16.2701 21 14.8 21H9.2C7.72986 21 6.99479 21 6.43327 20.7057C5.93935 20.4469 5.53778 20.0338 5.28611 19.5258C5 18.9482 5 18.1921 5 16.68V8.4C5 7.56303 5 7.14454 5.08944 6.80119C5.33217 5.86944 6.03973 5.14166 6.9456 4.892C7.27941 4.8 7.68627 4.8 8.5 4.8M9.8125 12L14.1875 16.5M14.1875 12L9.8125 16.5M9.9 6.6H14.1C14.59 6.6 14.8351 6.6 15.0222 6.50191C15.1869 6.41562 15.3207 6.27794 15.4046 6.10859C15.5 5.91607 15.5 5.66405 15.5 5.16V4.44C15.5 3.93595 15.5 3.68393 15.4046 3.49141C15.3207 3.32206 15.1869 3.18438 15.0222 3.09809C14.8351 3 14.59 3 14.1 3H9.9C9.40995 3 9.16493 3 8.97776 3.09809C8.81312 3.18438 8.67926 3.32206 8.59537 3.49141C8.5 3.68393 8.5 3.93595 8.5 4.44V5.16C8.5 5.66405 8.5 5.91607 8.59537 6.10859C8.67926 6.27794 8.81312 6.41562 8.97776 6.50191C9.16493 6.6 9.40995 6.6 9.9 6.6Z" fill="none" stroke="currentColor" stroke-width="2" stroke-linecap="round" stroke-linejoin="round"/>
</svg>
