<svg width="24" height="24" viewBox="0 0 24 24" fill="none" xmlns="http://www.w3.org/2000/svg">
<path d="M12 5C11.0717 5.92827 10.5503 7.18724 10.5503 8.5C10.5503 9.81276 11.0717 11.0717 12 12C12.9283 12.9283 14.1872 13.4497 15.5 13.4497C16.8128 13.4497 18.0717 12.9283 19 12C19 13.3844 18.5894 14.7378 17.8203 15.889C17.0511 17.0401 15.9579 17.9373 14.6788 18.4672C13.3997 18.997 11.9923 19.1356 10.6343 18.8655C9.27649 18.5954 8.02924 17.9287 7.05027 16.9497C6.0713 15.9708 5.40461 14.7235 5.13448 13.3657C4.86443 12.0077 5.00303 10.6003 5.53282 9.32121C6.06268 8.04212 6.95986 6.94887 8.11103 6.17968C9.2622 5.41057 10.6156 5 12 5Z" fill="none" stroke="currentColor" stroke-width="2" stroke-linecap="round" stroke-linejoin="round"/>
</svg>
