<svg width="24" height="24" viewBox="0 0 24 24" fill="none" xmlns="http://www.w3.org/2000/svg">
<path d="M17.75 5.75L5.75 17.75" stroke="currentColor" fill="none" stroke-width="1.5" stroke-linecap="round"/>
<path d="M17.6936 8.36621C18.6297 9.05054 19.4048 9.7819 19.9631 10.3652L20.2356 10.6553L20.2424 10.6641L20.3586 10.8066C20.6124 11.151 20.7502 11.5695 20.7502 12C20.7502 12.492 20.5699 12.968 20.2424 13.3359L20.2356 13.3447C19.5644 14.0769 18.4556 15.1663 17.0549 16.0771C15.6582 16.9854 13.9184 17.7499 12.0002 17.75C10.9112 17.75 9.87968 17.5033 8.93578 17.124L10.1106 15.9492C10.7221 16.1383 11.3548 16.25 12.0002 16.25C13.5223 16.2499 14.9769 15.6391 16.2375 14.8193C17.4888 14.0055 18.4982 13.0188 19.1223 12.3389C19.2036 12.2474 19.2502 12.1267 19.2502 12C19.2502 11.8733 19.2036 11.7526 19.1223 11.6611V11.6602C18.563 11.0509 17.6929 10.1979 16.6184 9.44141L17.6936 8.36621ZM12.0002 6.25C13.6331 6.25005 15.1367 6.80421 16.4094 7.5293L15.3039 8.63477C14.2791 8.10392 13.1591 7.75005 12.0002 7.75C10.4782 7.75 9.02353 8.3609 7.76292 9.18066C6.51168 9.99445 5.50133 10.9802 4.87718 11.6602L4.87816 11.6611C4.79677 11.7525 4.75023 11.8733 4.75023 12C4.75023 12.1268 4.79677 12.2474 4.87816 12.3389C5.5023 13.0189 6.51165 14.0055 7.76292 14.8193C8.0385 14.9985 8.32364 15.1672 8.61644 15.3223L7.51292 16.4258C7.31817 16.3129 7.12885 16.1964 6.94554 16.0771C5.5449 15.1663 4.43605 14.0769 3.76488 13.3447L3.75804 13.3359C3.43046 12.968 3.25023 12.492 3.25023 12C3.25023 11.508 3.43045 11.032 3.75804 10.6641L3.76488 10.6553L4.03734 10.3652C4.71828 9.65376 5.72008 8.7198 6.94554 7.92285C8.34223 7.01459 10.082 6.25 12.0002 6.25ZM12.0002 9C12.8129 9.00006 13.5488 9.32472 14.0891 9.84961L13.0285 10.9102C12.7599 10.6566 12.3987 10.5001 12.0002 10.5C11.1718 10.5 10.5002 11.1716 10.5002 12C10.5002 12.3985 10.6568 12.7597 10.9104 13.0283L9.84984 14.0889C9.32493 13.5486 9.00023 12.8128 9.00023 12C9.00023 10.3431 10.3434 9 12.0002 9Z" fill="currentColor" stroke="none"/>
</svg>
