<svg width="24" height="24" viewBox="0 0 24 24" fill="none" xmlns="http://www.w3.org/2000/svg">
<path d="M3.24124 12.6622C3.11674 12.462 3.05448 12.3619 3.01963 12.2075C2.99346 12.0915 2.99346 11.9085 3.01963 11.7925C3.05448 11.6381 3.11674 11.538 3.24124 11.3378C4.27015 9.68307 7.33276 5.5 12 5.5C16.6672 5.5 19.7299 9.68307 20.7588 11.3378C20.8833 11.538 20.9455 11.6381 20.9804 11.7925C21.0065 11.9085 21.0065 12.0915 20.9804 12.2075C20.9455 12.3619 20.8833 12.462 20.7588 12.6622C19.7299 14.3169 16.6672 18.5 12 18.5C7.33276 18.5 4.27015 14.3169 3.24124 12.6622Z" fill="none" stroke="currentColor" stroke-width="2" stroke-linecap="round" stroke-linejoin="round"/>
<path d="M12 14.7857C13.5148 14.7857 14.7427 13.5385 14.7427 12C14.7427 10.4615 13.5148 9.21429 12 9.21429C10.4852 9.21429 9.25726 10.4615 9.25726 12C9.25726 13.5385 10.4852 14.7857 12 14.7857Z" fill="none" stroke="currentColor" stroke-width="2" stroke-linecap="round" stroke-linejoin="round"/>
</svg>
