<svg width="24" height="24" viewBox="0 0 24 24" fill="none" xmlns="http://www.w3.org/2000/svg">
<path d="M8 3.5H7.8C6.11984 3.5 5.27976 3.5 4.63803 3.82698C4.07354 4.1146 3.6146 4.57354 3.32698 5.13803C3 5.77976 3 6.61984 3 8.3V8.5M8 21.5H7.8C6.11984 21.5 5.27976 21.5 4.63803 21.173C4.07354 20.8854 3.6146 20.4265 3.32698 19.862C3 19.2202 3 18.3802 3 16.7V16.5M21 8.5V8.3C21 6.61984 21 5.77976 20.673 5.13803C20.3854 4.57354 19.9265 4.1146 19.362 3.82698C18.7202 3.5 17.8802 3.5 16.2 3.5H16M21 16.5V16.7C21 18.3802 21 19.2202 20.673 19.862C20.3854 20.4265 19.9265 20.8854 19.362 21.173C18.7202 21.5 17.8802 21.5 16.2 21.5H16M7.5 8.5V10M16.5 8.5V10M11 13.1001C11.8 13.1001 12.5 12.4001 12.5 11.6001V8.5M15.2002 15.7C13.4002 17.5 10.5002 17.5 8.7002 15.7" stroke="currentColor" fill="none" stroke-width="2" stroke-linecap="round" stroke-linejoin="round"/>
</svg>
