<svg width="24" height="24" viewBox="0 0 24 24" fill="none" xmlns="http://www.w3.org/2000/svg">
<path d="M5.80688 19.0304C5.82459 19.0005 5.84273 18.9709 5.8613 18.9413C7.2158 16.7881 7.99991 14.2418 7.99991 11.5C7.99991 9.29086 9.79077 7.5 11.9999 7.5C14.209 7.5 15.9999 9.29086 15.9999 11.5C15.9999 12.517 15.9307 13.5186 15.7966 14.5M13.6792 21.3436C14.2909 20.1226 14.7924 18.8369 15.1707 17.5M19.0097 18.632C19.6547 16.3657 20 13.9732 20 11.5C20 7.08172 16.4183 3.5 12 3.5C10.5429 3.5 9.17669 3.88958 8 4.57026M3 15.8641C3.64066 14.5454 4 13.0646 4 11.5C4 10.0429 4.38958 8.67669 5.07026 7.5M11.9999 11.5C11.9999 15.0172 10.9911 18.2988 9.24707 21.0712" stroke="currentColor" fill="none" stroke-width="2" stroke-linecap="round" stroke-linejoin="round"/>
</svg>
