<svg width="24" height="24" viewBox="0 0 24 24" fill="none" xmlns="http://www.w3.org/2000/svg">
<path d="M17.5 9.49994C17.5 8.98812 17.3047 8.4763 16.9142 8.08579C16.5237 7.69526 16.0118 7.5 15.5 7.5M15.5 15.5C18.8137 15.5 21.5 12.8137 21.5 9.5C21.5 6.18629 18.8137 3.5 15.5 3.5C12.1863 3.5 9.5 6.18629 9.5 9.5C9.5 9.77368 9.51832 10.0431 9.55381 10.307C9.61218 10.7412 9.64136 10.9583 9.62172 11.0956C9.60125 11.2387 9.5752 11.3157 9.50469 11.4419C9.437 11.563 9.31771 11.6823 9.07913 11.9209L3.96863 17.0314C3.79568 17.2043 3.7092 17.2908 3.64736 17.3917C3.59253 17.4812 3.55213 17.5787 3.52763 17.6808C3.5 17.7959 3.5 17.9182 3.5 18.1627V19.9C3.5 20.4601 3.5 20.7401 3.60899 20.954C3.70487 21.1422 3.85785 21.2951 4.04601 21.391C4.25992 21.5 4.53995 21.5 5.1 21.5H7.5V19.5H9.5V17.5H11.5L13.0791 15.9209C13.3177 15.6823 13.437 15.563 13.5581 15.4953C13.6843 15.4248 13.7613 15.3987 13.9044 15.3783C14.0417 15.3586 14.2588 15.3878 14.693 15.4462C14.9569 15.4817 15.2263 15.5 15.5 15.5Z" stroke="currentColor" fill="none" stroke-width="2" stroke-linecap="round" stroke-linejoin="round"/>
</svg>
