<svg width="24" height="24" viewBox="0 0 24 24" fill="none" xmlns="http://www.w3.org/2000/svg">
<path d="M5.5 15.3C5.5 15.3 7.9375 18.5 12 18.5C16.0625 18.5 18.5 15.3 18.5 15.3M16.875 7.3H16.8913M7.125 7.3H7.14125M17.6875 7.3C17.6875 7.74183 17.3237 8.1 16.875 8.1C16.4263 8.1 16.0625 7.74183 16.0625 7.3C16.0625 6.85817 16.4263 6.5 16.875 6.5C17.3237 6.5 17.6875 6.85817 17.6875 7.3ZM7.9375 7.3C7.9375 7.74183 7.57373 8.1 7.125 8.1C6.67627 8.1 6.3125 7.74183 6.3125 7.3C6.3125 6.85817 6.67627 6.5 7.125 6.5C7.57373 6.5 7.9375 6.85817 7.9375 7.3Z" stroke="currentColor" fill="none" stroke-width="2" stroke-linecap="round" stroke-linejoin="round"/>
</svg>
