<svg width="20" height="20" viewBox="0 0 20 20" fill="none" xmlns="http://www.w3.org/2000/svg">
  <path d="M7.14286 19.2858L8.57143 15.7144H11.4286L12.8571 19.2858H7.14286Z" fill="white" />
  <path
    d="M18.5714 2.85718H1.42857C1.03408 2.85718 0.714287 3.17698 0.714287 3.57146V15C0.714287 15.3945 1.03408 15.7143 1.42857 15.7143H18.5714C18.9659 15.7143 19.2857 15.3945 19.2857 15V3.57146C19.2857 3.17698 18.9659 2.85718 18.5714 2.85718Z"
    fill="#D1D1D1" />
  <path
    d="M18.5714 2.85718H1.42857C1.03408 2.85718 0.714287 3.17698 0.714287 3.57146V15C0.714287 15.3945 1.03408 15.7143 1.42857 15.7143H18.5714C18.9659 15.7143 19.2857 15.3945 19.2857 15V3.57146C19.2857 3.17698 18.9659 2.85718 18.5714 2.85718Z"
    stroke="#4F4F4F" stroke-linecap="round" stroke-linejoin="round" />
  <path d="M8.57143 15.7144L7.14286 19.2858" stroke="#4F4F4F" stroke-linecap="round"
    stroke-linejoin="round" />
  <path d="M11.4286 15.7144L12.8571 19.2858" stroke="#4F4F4F" stroke-linecap="round"
    stroke-linejoin="round" />
  <path d="M5.71429 19.2856H14.2857" stroke="#4F4F4F" stroke-linecap="round" stroke-linejoin="round" />
  <path d="M6.42857 7.5L3.92857 9.64286L6.07143 11.4286" stroke="#4F4F4F" stroke-linecap="round"
    stroke-linejoin="round" />
  <path d="M13.9286 7.85718L16.0714 9.64289L13.5714 11.7857" stroke="#4F4F4F" stroke-linecap="round"
    stroke-linejoin="round" />
  <path d="M8.92857 12.5001L11.0714 6.07153" stroke="#4F4F4F" stroke-linecap="round"
    stroke-linejoin="round" />
</svg>
  