<svg width="20" height="20" viewBox="0 0 20 20" fill="none" xmlns="http://www.w3.org/2000/svg">
  <path
    d="M15.7143 7.85718H4.28571C3.49674 7.85718 2.85714 8.49678 2.85714 9.28575V17.8572C2.85714 18.6462 3.49674 19.2857 4.28571 19.2857H15.7143C16.5033 19.2857 17.1429 18.6462 17.1429 17.8572V9.28575C17.1429 8.49678 16.5033 7.85718 15.7143 7.85718Z"
    fill="#D1D1D1" />
  <path
    d="M15.7143 7.85718H4.28571C3.49674 7.85718 2.85714 8.49678 2.85714 9.28575V17.8572C2.85714 18.6462 3.49674 19.2857 4.28571 19.2857H15.7143C16.5033 19.2857 17.1429 18.6462 17.1429 17.8572V9.28575C17.1429 8.49678 16.5033 7.85718 15.7143 7.85718Z"
    stroke="#4F4F4F" stroke-linecap="round" stroke-linejoin="round" />
  <path
    d="M15 7.85721V5.71436C15 4.38827 14.4733 3.1165 13.5355 2.17883C12.5979 1.24114 11.3261 0.714355 10 0.714355C8.67391 0.714355 7.40214 1.24114 6.46447 2.17883C5.52679 3.1165 5 4.38827 5 5.71436V7.85721"
    stroke="#4F4F4F" stroke-linecap="round" stroke-linejoin="round" />
  <path
    d="M10 14.2857C10.3945 14.2857 10.7143 13.9659 10.7143 13.5715C10.7143 13.177 10.3945 12.8572 10 12.8572C9.60551 12.8572 9.28571 13.177 9.28571 13.5715C9.28571 13.9659 9.60551 14.2857 10 14.2857Z"
    stroke="#4F4F4F" stroke-linecap="round" stroke-linejoin="round" />
</svg>
  