<svg width="20" height="20" viewBox="0 0 20 20" fill="none" xmlns="http://www.w3.org/2000/svg">
  <g clip-path="url(#clip0_886_3101)">
    <path
      d="M10 11.4287C11.9724 11.4287 13.5714 9.82976 13.5714 7.85732C13.5714 5.88487 11.9724 4.28589 10 4.28589C8.02756 4.28589 6.42857 5.88487 6.42857 7.85732C6.42857 9.82976 8.02756 11.4287 10 11.4287Z"
      fill="white" />
    <path
      d="M16.102 16.9995C14.4701 18.4234 12.3358 19.2858 10 19.2858C7.6642 19.2858 5.52983 18.4234 3.89797 16.9995C5.15211 14.9438 7.41579 13.5715 10 13.5715C12.5842 13.5715 14.8479 14.9438 16.102 16.9995Z"
      fill="white" />
    <path fill-rule="evenodd" clip-rule="evenodd"
      d="M3.89796 16.9995C5.1521 14.9438 7.41579 13.5715 10 13.5715C12.5842 13.5715 14.8479 14.9438 16.102 16.9995C18.053 15.2972 19.2857 12.7926 19.2857 10.0001C19.2857 4.87171 15.1284 0.714355 10 0.714355C4.87164 0.714355 0.714287 4.87171 0.714287 10.0001C0.714287 12.7926 1.947 15.2972 3.89796 16.9995ZM10 11.4286C11.9724 11.4286 13.5714 9.82966 13.5714 7.85721C13.5714 5.88477 11.9724 4.28578 10 4.28578C8.02756 4.28578 6.42857 5.88477 6.42857 7.85721C6.42857 9.82966 8.02756 11.4286 10 11.4286Z"
      fill="#D1D1D1" />
    <path
      d="M10 11.4287C11.9724 11.4287 13.5714 9.82976 13.5714 7.85732C13.5714 5.88487 11.9724 4.28589 10 4.28589C8.02756 4.28589 6.42857 5.88487 6.42857 7.85732C6.42857 9.82976 8.02756 11.4287 10 11.4287Z"
      stroke="#4F4F4F" stroke-linecap="round" stroke-linejoin="round" />
    <path
      d="M3.89997 17.0001C4.53746 15.9537 5.43341 15.0888 6.5017 14.4888C7.56999 13.8887 8.77467 13.5735 9.99997 13.5735C11.2253 13.5735 12.43 13.8887 13.4982 14.4888C14.5666 15.0888 15.4624 15.9537 16.1 17.0001"
      stroke="#4F4F4F" stroke-linecap="round" stroke-linejoin="round" />
    <path
      d="M10 19.2858C15.1284 19.2858 19.2857 15.1285 19.2857 10.0001C19.2857 4.87171 15.1284 0.714355 10 0.714355C4.87164 0.714355 0.714287 4.87171 0.714287 10.0001C0.714287 15.1285 4.87164 19.2858 10 19.2858Z"
      stroke="#4F4F4F" stroke-linecap="round" stroke-linejoin="round" />
  </g>
  <defs>
    <clipPath id="clip0_886_3101">
      <rect width="20" height="20" fill="white" />
    </clipPath>
  </defs>
</svg>
  