<svg width="20" height="20" viewBox="0 0 20 20" fill="none" xmlns="http://www.w3.org/2000/svg">
  <path
    d="M7.14286 10.7144C3.59246 10.7144 0.714287 13.5925 0.714287 17.1429V17.8572H12.8165C13.2239 17.8572 13.5714 17.5504 13.5714 17.1429C13.5714 13.5925 10.6933 10.7144 7.14286 10.7144Z"
    fill="#FFC1C5" />
  <path
    d="M7.14286 7.85721C9.1153 7.85721 10.7143 6.25823 10.7143 4.28578C10.7143 2.31334 9.1153 0.714355 7.14286 0.714355C5.17041 0.714355 3.57143 2.31334 3.57143 4.28578C3.57143 6.25823 5.17041 7.85721 7.14286 7.85721Z"
    fill="#FFC1C5" />
  <path
    d="M7.14286 7.85721C9.1153 7.85721 10.7143 6.25823 10.7143 4.28578C10.7143 2.31334 9.1153 0.714355 7.14286 0.714355C5.17041 0.714355 3.57143 2.31334 3.57143 4.28578C3.57143 6.25823 5.17041 7.85721 7.14286 7.85721Z"
    stroke="#B00410" stroke-linecap="round" stroke-linejoin="round" />
  <path
    d="M9.28571 17.8573H0.714287V17.0829C0.72566 15.9939 1.01283 14.9258 1.54896 13.978C2.0851 13.0302 2.85272 12.2337 3.7801 11.663C4.7075 11.0923 5.76442 10.766 6.85212 10.7145C6.94909 10.7099 7.04603 10.7075 7.14286 10.7073C7.23969 10.7075 7.33664 10.7099 7.43361 10.7145C8.52131 10.766 9.57823 11.0923 10.5056 11.663C11.0389 11.9912 11.5194 12.394 11.9333 12.8573"
    stroke="#B00410" stroke-linecap="round" stroke-linejoin="round" />
  <path d="M12.1429 16.4287H19.2857" stroke="#B00410" stroke-linecap="round" stroke-linejoin="round" />
</svg>
  