<svg width="144" height="144" viewBox="0 0 144 145" fill="none" xmlns="http://www.w3.org/2000/svg">
<path d="M70.9127 29.5561C66.5816 29.5561 59.363 24.98 54.5507 24.98C49.7384 24.98 48.7093 29.983 47.8134 31.0815C46.9176 32.18 39.6325 42.1405 38.67 43.6659C37.8179 45.0163 30.931 55.3333 27.359 72.5C26.8962 74.724 26.5787 76.4004 26.1579 79.5122C25.7371 82.624 25.9986 86.0504 26.0181 87.9152C26.0376 89.78 26.3325 92.231 26.6391 95.1473C27.4044 102.425 30.6039 107.05 31.8826 108.639C32.2245 109.065 32.5784 109.473 32.9459 109.876C34.5386 111.623 39.7276 116.608 48.7759 118.791C59.8441 121.46 68.0251 121.46 68.0253 121.46H77.3047C77.3049 121.46 85.4858 121.46 96.5541 118.791C105.602 116.608 110.791 111.623 112.384 109.876C112.752 109.473 113.105 109.065 113.447 108.639C114.726 107.05 117.926 102.425 118.691 95.1473C118.998 92.231 119.292 89.78 119.312 87.9152C119.331 86.0504 119.593 82.624 119.172 79.5122C118.751 76.4004 118.434 74.724 117.971 72.5C114.399 55.3333 107.512 45.0163 106.66 43.6659C105.698 42.1405 98.4124 32.18 97.5165 31.0815C96.6207 29.983 95.5916 24.98 90.7793 24.98C85.9669 24.98 78.7484 29.5561 74.4173 29.5561H70.9127Z" fill="white"/>
<path d="M74.7625 29.5561H70.9127C66.5816 29.5561 59.363 24.98 54.5507 24.98C49.7384 24.98 48.7093 29.983 47.8134 31.0815C46.9176 32.18 39.6325 42.1405 38.67 43.6659C37.8179 45.0163 30.931 55.3333 27.359 72.5C26.8962 74.724 26.5787 76.4004 26.1579 79.5122C25.7371 82.624 25.9986 86.0504 26.0181 87.9152C26.0376 89.78 26.3325 92.231 26.6391 95.1473C27.4044 102.425 30.6039 107.05 31.8826 108.639C32.2245 109.065 32.5784 109.473 32.9459 109.876C34.5386 111.623 39.7276 116.608 48.7759 118.791C59.8441 121.46 68.025 121.46 68.0253 121.46C68.0253 121.46 68.0253 121.46 68.0253 121.46H77.6499M70.5674 29.5561H74.4173C78.7484 29.5561 85.9669 24.98 90.7793 24.98C95.5916 24.98 96.6207 29.983 97.5165 31.0815C98.4124 32.18 105.698 42.1405 106.66 43.6659C107.512 45.0163 114.399 55.3333 117.971 72.5C118.434 74.724 118.751 76.4004 119.172 79.5122C119.593 82.624 119.331 86.0504 119.312 87.9152C119.292 89.78 118.998 92.231 118.691 95.1473C117.926 102.425 114.726 107.05 113.447 108.639C113.105 109.065 112.752 109.473 112.384 109.876C110.791 111.623 105.602 116.608 96.5541 118.791C85.4858 121.46 77.3049 121.46 77.3047 121.46C77.3047 121.46 77.3047 121.46 77.3047 121.46H67.68" stroke="#222222" stroke-width="5.76" stroke-linecap="round"/>
<circle cx="55.44" cy="60.26" r="5.04" fill="#222222"/>
<circle cx="88.56" cy="60.26" r="5.04" fill="#222222"/>
<path d="M64.8 68.18C64.8 68.18 68.4 68.18 70.2 65.5215C72 62.8631 72 59.54 72 59.54" stroke="#222222" stroke-width="2.88" stroke-linecap="round"/>
<path d="M79.2 68.18C79.2 68.18 75.6 68.18 73.8 65.5215C72 62.8631 72 59.54 72 59.54" stroke="#222222" stroke-width="2.88" stroke-linecap="round"/>
<path d="M67.5241 92.205C67.5241 92.3778 67.501 92.5448 67.4549 92.7061C67.4089 92.8674 67.3282 93.0114 67.213 93.1381C67.1669 93.2072 67.0863 93.2994 66.9711 93.4146C66.8559 93.5183 66.7004 93.668 66.5045 93.8639C66.0207 94.2671 65.5599 94.6933 65.1221 95.1426C64.6959 95.5919 64.2812 96.0642 63.878 96.5596C63.7397 96.7208 63.6015 96.8879 63.4633 97.0607C63.325 97.2335 63.2156 97.412 63.1349 97.5964C63.0543 97.7807 63.014 97.9765 63.014 98.1839C63.0255 98.3912 63.1119 98.6044 63.2732 98.8232C63.5612 99.2264 63.8665 99.6124 64.189 99.981C64.5116 100.35 64.8572 100.713 65.2258 101.07C65.4447 101.3 65.6636 101.525 65.8825 101.744C66.1129 101.962 66.3317 102.181 66.5391 102.4C66.8156 102.677 66.9826 102.97 67.0402 103.281C67.0978 103.581 67.069 103.846 66.9538 104.076C66.8386 104.307 66.6485 104.474 66.3836 104.577C66.1301 104.681 65.8249 104.664 65.4677 104.526C65.2834 104.445 65.1049 104.336 64.9321 104.197C64.7593 104.071 64.5922 103.927 64.4309 103.765C64.2697 103.593 64.1141 103.42 63.9644 103.247C63.8146 103.074 63.6764 102.913 63.5497 102.763C61.3839 100.378 60.301 98.8002 60.301 98.0284C60.301 97.4408 60.7215 96.5884 61.5625 95.4709C61.885 95.0677 62.2421 94.6472 62.6338 94.2095C63.0255 93.7602 63.4633 93.3167 63.9471 92.8789C64.2466 92.5794 64.5519 92.2856 64.8629 91.9976C65.1855 91.6981 65.5369 91.4447 65.917 91.2373C66.0783 91.1567 66.2511 91.1221 66.4354 91.1336C66.6313 91.1336 66.8098 91.1797 66.9711 91.2719C67.1324 91.3525 67.2649 91.4735 67.3685 91.6348C67.4722 91.796 67.5241 91.9861 67.5241 92.205Z" fill="#222222"/>
<path d="M70.3731 104.439C70.2349 104.439 70.1024 104.416 69.9757 104.37C69.8489 104.324 69.7395 104.261 69.6473 104.18C69.5552 104.099 69.4861 104.001 69.44 103.886C69.3939 103.771 69.3824 103.639 69.4054 103.489C69.3363 103.281 69.3305 103.097 69.3881 102.936C69.4457 102.763 69.5206 102.59 69.6128 102.417H69.5955C69.9987 101.519 70.3904 100.638 70.7705 99.7736C71.1622 98.8981 71.5712 98.0284 71.9974 97.1644C72.3776 96.358 72.7289 95.5976 73.0515 94.8834C73.3741 94.1692 73.6909 93.4664 74.0019 92.7752C74.0595 92.6485 74.1286 92.5218 74.2093 92.3951C74.2899 92.2684 74.3821 92.1704 74.4857 92.1013C74.5894 92.0207 74.7104 91.9688 74.8486 91.9458C74.9869 91.9228 75.1539 91.9516 75.3497 92.0322C75.6493 92.1589 75.8681 92.3375 76.0064 92.5679C76.1561 92.7983 76.2022 93.0632 76.1446 93.3627C75.9833 93.7775 75.8509 94.1173 75.7472 94.3823C75.655 94.6357 75.5571 94.8719 75.4534 95.0908C75.3613 95.3096 75.2576 95.5343 75.1424 95.7647C75.0272 95.9951 74.8774 96.2946 74.6931 96.6632C74.5203 97.0319 74.3014 97.4984 74.0365 98.0629C73.783 98.6159 73.4605 99.3301 73.0688 100.206C72.8614 100.678 72.6483 101.127 72.4294 101.553C72.2221 101.98 72.0147 102.406 71.8073 102.832C71.7382 102.959 71.6633 103.114 71.5827 103.299C71.5021 103.472 71.4157 103.662 71.3235 103.869C71.2313 104.065 71.0989 104.209 70.9261 104.301C70.7533 104.393 70.5689 104.439 70.3731 104.439Z" fill="#222222"/>
<path d="M77.7951 92.205C77.7951 91.9861 77.847 91.796 77.9506 91.6348C78.0543 91.4735 78.1868 91.3525 78.3481 91.2719C78.5094 91.1797 78.6822 91.1336 78.8665 91.1336C79.0623 91.1221 79.2409 91.1567 79.4022 91.2373C79.7823 91.4447 80.1279 91.6981 80.439 91.9976C80.7615 92.2856 81.0726 92.5794 81.3721 92.8789C81.8559 93.3167 82.2937 93.7602 82.6854 94.2095C83.077 94.6472 83.4342 95.0677 83.7567 95.4709C84.5977 96.5884 85.0182 97.4408 85.0182 98.0284C85.0182 98.8002 83.9353 100.378 81.7695 102.763C81.6428 102.913 81.5046 103.074 81.3548 103.247C81.205 103.42 81.0495 103.593 80.8882 103.765C80.727 103.927 80.5599 104.071 80.3871 104.197C80.2143 104.336 80.0358 104.445 79.8514 104.526C79.4943 104.664 79.1833 104.681 78.9183 104.577C78.6649 104.474 78.4806 104.307 78.3654 104.076C78.2502 103.846 78.2214 103.581 78.279 103.281C78.3366 102.97 78.5036 102.677 78.7801 102.4C78.9874 102.181 79.2006 101.962 79.4194 101.744C79.6498 101.525 79.8745 101.3 80.0934 101.07C80.462 100.713 80.8076 100.35 81.1302 99.981C81.4527 99.6124 81.758 99.2264 82.046 98.8232C82.1958 98.6044 82.2764 98.3912 82.2879 98.1839C82.2994 97.9765 82.2649 97.7807 82.1842 97.5964C82.1036 97.412 81.9942 97.2335 81.8559 97.0607C81.7177 96.8879 81.5794 96.7208 81.4412 96.5596C81.038 96.0642 80.6175 95.5919 80.1798 95.1426C79.7535 94.6933 79.2985 94.2671 78.8146 93.8639C78.6188 93.668 78.4633 93.5183 78.3481 93.4146C78.2329 93.2994 78.1522 93.2072 78.1062 93.1381C77.991 93.0114 77.9103 92.8674 77.8642 92.7061C77.8182 92.5448 77.7951 92.3778 77.7951 92.205Z" fill="#222222"/>
</svg>
